<svg xmlns="http://www.w3.org/2000/svg" width="1400" height="850" viewBox="0 0 1400 850" role="img" aria-label="Implicit-to-Mesh Conversion">
  <defs>
    <linearGradient id="bg" x1="0" x2="1" y1="0" y2="1">
      <stop offset="0" stop-color="#f8fafc"/>
      <stop offset="1" stop-color="#dbe4ec"/>
    </linearGradient>
    <linearGradient id="surface" x1="0" x2="1" y1="0" y2="1">
      <stop offset="0" stop-color="#9aa3aa"/>
      <stop offset="0.55" stop-color="#68717a"/>
      <stop offset="1" stop-color="#3f474f"/>
    </linearGradient>
    <pattern id="mesh" width="24" height="24" patternUnits="userSpaceOnUse">
      <path d="M0 0H24M0 0V24M0 24L24 0" fill="none" stroke="#58616a" stroke-width="1" opacity="0.28"/>
    </pattern>
    <filter id="shadow" x="-20%" y="-20%" width="140%" height="140%">
      <feDropShadow dx="0" dy="18" stdDeviation="20" flood-color="#111827" flood-opacity="0.22"/>
    </filter>
  </defs>
  <rect width="1400" height="850" fill="url(#bg)"/>
  <g opacity="0.28" stroke="#94a3b8" stroke-width="1">
    <path d="M0 118H1400M0 236H1400M0 354H1400M0 472H1400M0 590H1400M0 708H1400"/>
    <path d="M116 0V850M232 0V850M348 0V850M464 0V850M580 0V850M696 0V850M812 0V850M928 0V850M1044 0V850M1160 0V850M1276 0V850"/>
  </g>
  <g filter="url(#shadow)">
    <path d="M140 344C196 194 360 104 552 132C655 147 724 204 801 219C910 240 1035 178 1158 217C1260 249 1307 333 1266 415C1218 511 1069 522 943 492C826 464 742 407 631 411C509 416 432 497 308 494C199 491 102 448 140 344Z" fill="url(#surface)"/>
    <path d="M140 344C196 194 360 104 552 132C655 147 724 204 801 219C910 240 1035 178 1158 217C1260 249 1307 333 1266 415C1218 511 1069 522 943 492C826 464 742 407 631 411C509 416 432 497 308 494C199 491 102 448 140 344Z" fill="url(#mesh)" opacity="0.72"/>
  </g>
  <g fill="#eef2f7" opacity="0.96">
    <circle cx="310" cy="310" r="48"/><circle cx="455" cy="266" r="40"/><circle cx="604" cy="316" r="45"/><circle cx="748" cy="284" r="38"/>
    <circle cx="890" cy="346" r="46"/><circle cx="1054" cy="315" r="42"/><circle cx="1168" cy="391" r="34"/><circle cx="488" cy="407" r="35"/><circle cx="690" cy="430" r="40"/>
  </g>
  <g opacity="0.92">
    <rect x="155" y="605" width="245" height="82" rx="10" fill="#fff7ed" stroke="#fdba74"/>
    <rect x="455" y="646" width="245" height="82" rx="10" fill="#eff6ff" stroke="#93c5fd"/>
    <rect x="755" y="605" width="245" height="82" rx="10" fill="#f0fdf4" stroke="#86efac"/>
    <rect x="1055" y="646" width="245" height="82" rx="10" fill="#f8fafc" stroke="#cbd5e1"/>
    <path d="M400 646C430 646 428 685 455 685M700 687C731 687 727 646 755 646M1000 646C1030 646 1025 685 1055 685" fill="none" stroke="#64748b" stroke-width="3"/>
    <text x="278" y="656" text-anchor="middle" font-family="Arial, sans-serif" font-size="24" fill="#9a3412">Implicit Field</text>
    <text x="578" y="697" text-anchor="middle" font-family="Arial, sans-serif" font-size="24" fill="#1d4ed8">Sampling</text>
    <text x="878" y="656" text-anchor="middle" font-family="Arial, sans-serif" font-size="24" fill="#166534">Triangulation</text>
    <text x="1178" y="697" text-anchor="middle" font-family="Arial, sans-serif" font-size="24" fill="#334155">Mesh Output</text>
  </g>
  <text x="80" y="88" font-family="Arial, sans-serif" font-size="52" font-weight="700" fill="#111827">Implicit-to-Mesh Conversion</text>
  <text x="80" y="138" font-family="Arial, sans-serif" font-size="28" fill="#475569">Field-based geometry to production triangular mesh</text>
</svg>
